# xmcd
#
# Track frame offsets:
# 150
# 8401
# 18185
# 27061
# 38635
# 50684
# 61462
# 74290
# 81851
# 92989
# 102097
# 108013
# 119139
# 128409
# 137952
# 146690
# 157659
# 167822
#
# Disc length: 2394 seconds
#
#
# Revision: 2
# Processed by: cddbd v1.4PL0 Copyright (c) Steve Scherf et al.
# Submitted via: FreeRIP 2.20 
#
DISCID=e3095812
DTITLE=Johnny Cash - Johnny Cash 3CD Anthology Disc 3
DYEAR=2001
DGENRE=Country
TTITLE0=Always alone
TTITLE1=The story of a broken heart
TTITLE2=Katy too
TTITLE3=Fools hall of fame
TTITLE4=Give my love to Rose
TTITLE5=Wide open road
TTITLE6=You win again
TTITLE7=Come in stranger
TTITLE8=Don't make me go
TTITLE9=Blue train
TTITLE10=You tell me
TTITLE11=Oh lonesome me
TTITLE12=Down the street to 301
TTITLE13=It's just about time
TTITLE14=Two timin' woman
TTITLE15=Cry cry cry
TTITLE16=I was there when it happened
TTITLE17=Home of the blues
EXTD=
EXTT0=
EXTT1=
EXTT2=
EXTT3=
EXTT4=
EXTT5=
EXTT6=
EXTT7=
EXTT8=
EXTT9=
EXTT10=
EXTT11=
EXTT12=
EXTT13=
EXTT14=
EXTT15=
EXTT16=
EXTT17=
PLAYORDER=
